# xmcd
#
# Track frame offsets:
#  150
#  23550
#  54400
#  68862
#  86425
#  115300
#  133650
#  170575
#  193962
#  217950
#
# Disc length: 3115 seconds
#
# Revision: 0
# Processed by: cddbd v1.4PL0 Copyright (c) Steve Scherf et al.
# Submitted via: AltoMP3_Maker 3.0
#
DISCID=8a0c290a
DTITLE=Tinh Khuc Bat Tu 7 - Nhung Bai Tho Hay Pho Nhac
DYEAR=1900
DGENRE=
TTITLE0=Tho Chut Tinh Dau
TTITLE1=Phuong Hong
TTITLE2=Em Di Chua Huong
TTITLE3=Ao Trang
TTITLE4=Ao Lua Ha Dong
TTITLE5=Tho Ngoc Lan
TTITLE6=Thang Sau Mua Thi
TTITLE7=Cay Diep Vang
TTITLE8=Me La Que Huong
TTITLE9=Nhac Em Diu
EXTD=
EXTT0=
EXTT1=
EXTT2=
EXTT3=
EXTT4=
EXTT5=
EXTT6=
EXTT7=
EXTT8=
EXTT9=
PLAYORDER=
